<svg width="24" height="24" viewBox="0 0 24 24" fill="none" xmlns="http://www.w3.org/2000/svg">
<path d="M22.6758 0H1.32421C0.592868 0 0 0.592868 0 1.32421V22.6758C0 23.4071 0.592868 24 1.32421 24H22.6758C23.4071 24 24 23.4071 24 22.6758V1.32421C24 0.592868 23.4071 0 22.6758 0Z" fill="#3D5A98"/>
<path d="M16.5577 23.998V14.7043H19.6765L20.143 11.0825H16.5577V8.77067C16.5577 7.72225 16.8497 7.00641 18.3523 7.00641H20.2707V3.76179C19.3418 3.66498 18.4082 3.61894 17.4743 3.6239C14.7123 3.6239 12.8101 5.30704 12.8101 8.41173V11.0825H9.69125V14.7043H12.8101V23.998H16.5577Z" fill="white"/>
</svg>
