<svg width="24" height="24" viewBox="0 0 24 24" fill="none" xmlns="http://www.w3.org/2000/svg">
<path d="M17.7275 16.1007C16.0956 17.753 11.9999 21.9 11.9999 21.9C11.9999 21.9 7.80372 17.6513 6.27234 16.1007C3.10909 12.8978 3.10909 7.70498 6.27234 4.50212C9.43558 1.29926 14.5642 1.29926 17.7275 4.50212C20.8907 7.70498 20.8907 12.8978 17.7275 16.1007Z" stroke="#DFA100" stroke-width="1.8" stroke-linejoin="round"/>
<path d="M14.6999 9.59998C14.6999 11.0911 13.4911 12.3 11.9999 12.3C10.5087 12.3 9.2999 11.0911 9.2999 9.59998C9.2999 8.10881 10.5087 6.89998 11.9999 6.89998C13.4911 6.89998 14.6999 8.10881 14.6999 9.59998Z" stroke="#DFA100" stroke-width="1.8" stroke-linejoin="round"/>
</svg>
