<svg width="24" height="24" viewBox="0 0 24 24" fill="none" xmlns="http://www.w3.org/2000/svg">
<path d="M9.14245 4.34233L7.21859 2.41847C7.01466 2.21454 6.73808 2.09998 6.44968 2.09998C4.04747 2.09998 2.1001 4.04735 2.1001 6.44956V8.50127C2.1001 9.81441 2.41639 11.1082 3.02221 12.2733C4.9603 16.0004 7.99972 19.0398 11.7268 20.9779C12.8918 21.5837 14.1857 21.9 15.4988 21.9H18.4749C20.3666 21.9 21.9001 20.3665 21.9001 18.4748C21.9001 17.6159 21.4708 16.8138 20.7562 16.3374L19.3563 15.4041C18.9799 15.1532 18.7918 15.0277 18.5888 14.9774C18.3992 14.9304 18.201 14.9304 18.0114 14.9774C17.8084 15.0277 17.6202 15.1532 17.2439 15.4041L16.2666 16.0557C15.9023 16.2985 15.7201 16.42 15.5333 16.503C14.9898 16.7444 14.376 16.7755 13.8109 16.5901C13.6167 16.5264 13.4232 16.424 13.0362 16.2191L12.7874 16.0874C12.2163 15.785 11.9308 15.6339 11.6613 15.4676C10.389 14.6825 9.31755 13.6111 8.53247 12.3387C8.36619 12.0693 8.21501 11.7837 7.91269 11.2127C7.73786 10.8824 7.65043 10.7173 7.59308 10.5584C7.31824 9.79683 7.44587 8.94806 7.93251 8.30103C8.03405 8.16602 8.16617 8.0339 8.43041 7.76966L9.14245 7.05762C9.61767 6.5824 9.85528 6.34479 9.94431 6.0708C10.0226 5.82978 10.0226 5.57017 9.94431 5.32916C9.85528 5.05516 9.61767 4.81755 9.14245 4.34233Z" stroke="#DFA100" stroke-width="1.8" stroke-linejoin="round"/>
</svg>
