<svg width="28" height="23" viewBox="0 0 28 23" fill="none" xmlns="http://www.w3.org/2000/svg">
<path d="M27.143 5.73794L27.1434 5.73952L27.4734 7.20939C27.4734 7.20943 27.4734 7.20948 27.4734 7.20952C27.5078 7.36296 27.5074 7.51291 27.4791 7.65304L27.4565 7.76517L27.4849 7.876C27.5038 7.94985 27.5055 8.02704 27.49 8.10169C27.4745 8.17633 27.4422 8.24643 27.3954 8.30664C27.3487 8.36685 27.2888 8.41558 27.2203 8.44909C27.1518 8.4826 27.0766 8.50002 27.0004 8.5H27.0002H24.9952L23.7622 6.85631V6.8548L23.6627 6.72167C23.3788 6.34177 23.01 6.03347 22.5858 5.82136C22.2456 5.65127 21.8774 5.54681 21.5002 5.51251V4.31C21.5002 3.31186 20.6884 2.5 19.6902 2.5H18.3102C17.3121 2.5 16.5002 3.31186 16.5002 4.31V5.49H11.5002V4.31C11.5002 3.31186 10.6884 2.5 9.69024 2.5H8.31024C7.3121 2.5 6.50024 3.31186 6.50024 4.31V5.51282C5.64061 5.59176 4.85419 6.03175 4.33031 6.7299L4.33009 6.7302L3.00409 8.5H1.00024H1.00012C0.923888 8.50002 0.848661 8.4826 0.780193 8.44909C0.71172 8.41558 0.651819 8.36685 0.605068 8.30664C0.558317 8.24643 0.525952 8.17632 0.510449 8.10168C0.494946 8.02705 0.496715 7.94985 0.51562 7.876L0.544073 7.76486L0.521225 7.65243C0.491623 7.50676 0.493468 7.35646 0.526634 7.21157L0.526662 7.21157L0.527798 7.20635L0.84722 5.73897C0.847315 5.73855 0.847411 5.73812 0.847506 5.7377C1.17942 4.25275 2.00697 2.92503 3.194 1.97305C4.38131 1.02083 5.85747 0.501304 7.37944 0.5H20.6212C20.6212 0.5 20.6212 0.5 20.6212 0.5C22.1422 0.500159 23.6176 1.01937 24.8035 1.97178C25.9893 2.9242 26.8147 4.25281 27.143 5.73794Z" stroke="#DFA100"/>
<mask id="path-2-inside-1_148_208" fill="white">
<path d="M22.46 7.62L26.12 12.5C27.3405 14.1232 28.0003 16.0991 28 18.13V21.44C28 22.3 27.3 23 26.44 23H1.56C0.7 23 0 22.3 0 21.44V18.13C0 16.1 0.66 14.12 1.88 12.5L5.53 7.63C5.83 7.23 6.29 7 6.78 7H7.69C7.86 7 8 6.86 8 6.69V4.31C8 4.14 8.14 4 8.31 4H9.69C9.86 4 10 4.14 10 4.31V6.69C10 6.86 10.14 7 10.31 7H17.69C17.86 7 18 6.86 18 6.69V4.31C18 4.14 18.14 4 18.31 4H19.69C19.86 4 20 4.14 20 4.31V6.69C20 6.86 20.14 7 20.31 7H21.22C21.71 7 22.17 7.23 22.46 7.62ZM11.698 12C11.868 12 12.009 11.86 11.999 11.688V10.312C11.9987 10.2295 11.9659 10.1504 11.9077 10.092C11.8494 10.0336 11.7705 10.0005 11.688 10H10.312C10.2293 10.0003 10.1501 10.0332 10.0917 10.0917C10.0332 10.1501 10.0003 10.2293 10 10.312V11.688C10 11.859 10.14 12 10.322 12H11.698ZM14.698 12C14.7386 12.0003 14.7788 11.9924 14.8163 11.9767C14.8537 11.961 14.8876 11.9378 14.9158 11.9087C14.944 11.8795 14.9661 11.8449 14.9805 11.807C14.995 11.769 15.0016 11.7286 15 11.688V10.312C14.9995 10.2294 14.9664 10.1504 14.908 10.092C14.8496 10.0336 14.7706 10.0005 14.688 10H13.312C13.2293 10.0003 13.1501 10.0332 13.0917 10.0917C13.0332 10.1501 13.0003 10.2293 13 10.312V11.688C13 11.859 13.14 12 13.322 12H14.698ZM16.322 12H17.698C17.7386 12.0003 17.7788 11.9924 17.8163 11.9767C17.8537 11.961 17.8876 11.9378 17.9158 11.9087C17.944 11.8795 17.9661 11.8449 17.9805 11.807C17.995 11.769 18.0016 11.7286 18 11.688V10.312C17.9995 10.2294 17.9664 10.1504 17.908 10.092C17.8496 10.0336 17.7706 10.0005 17.688 10H16.312C16.2293 10.0003 16.1501 10.0332 16.0917 10.0917C16.0332 10.1501 16.0003 10.2293 16 10.312V11.688C16 11.859 16.14 12 16.322 12ZM11.698 15C11.868 15 12.009 14.86 11.999 14.688V13.312C11.9987 13.2295 11.9659 13.1504 11.9077 13.092C11.8494 13.0336 11.7705 13.0005 11.688 13H10.312C10.2293 13.0003 10.1501 13.0332 10.0917 13.0917C10.0332 13.1501 10.0003 13.2293 10 13.312V14.688C10 14.859 10.14 15 10.322 15H11.698ZM13.322 15H14.698C14.7386 15.0003 14.7788 14.9924 14.8163 14.9767C14.8537 14.961 14.8876 14.9378 14.9158 14.9087C14.944 14.8795 14.9661 14.8449 14.9805 14.807C14.995 14.769 15.0016 14.7286 15 14.688V13.312C14.9995 13.2294 14.9664 13.1504 14.908 13.092C14.8496 13.0336 14.7706 13.0005 14.688 13H13.312C13.2293 13.0003 13.1501 13.0332 13.0917 13.0917C13.0332 13.1501 13.0003 13.2293 13 13.312V14.688C13 14.859 13.14 15 13.322 15ZM17.698 15C17.7386 15.0003 17.7788 14.9924 17.8163 14.9767C17.8537 14.961 17.8876 14.9378 17.9158 14.9087C17.944 14.8795 17.9661 14.8449 17.9805 14.807C17.995 14.769 18.0016 14.7286 18 14.688V13.312C17.9995 13.2294 17.9664 13.1504 17.908 13.092C17.8496 13.0336 17.7706 13.0005 17.688 13H16.312C16.2293 13.0003 16.1501 13.0332 16.0917 13.0917C16.0332 13.1501 16.0003 13.2293 16 13.312V14.688C16 14.859 16.14 15 16.322 15H17.698ZM10.322 18H11.698C11.868 18 12.009 17.86 11.999 17.688V16.312C11.9987 16.2295 11.9659 16.1504 11.9077 16.092C11.8494 16.0336 11.7705 16.0005 11.688 16H10.312C10.2293 16.0003 10.1501 16.0332 10.0917 16.0917C10.0332 16.1501 10.0003 16.2293 10 16.312V17.688C10 17.859 10.14 18 10.322 18ZM14.698 18C14.7386 18.0003 14.7788 17.9924 14.8163 17.9767C14.8537 17.961 14.8876 17.9378 14.9158 17.9087C14.944 17.8795 14.9661 17.8449 14.9805 17.807C14.995 17.769 15.0016 17.7286 15 17.688V16.312C14.9995 16.2294 14.9664 16.1504 14.908 16.092C14.8496 16.0336 14.7706 16.0005 14.688 16H13.312C13.2293 16.0003 13.1501 16.0332 13.0917 16.0917C13.0332 16.1501 13.0003 16.2293 13 16.312V17.688C13 17.859 13.14 18 13.322 18H14.698ZM16.322 18H17.698C17.7386 18.0003 17.7788 17.9924 17.8163 17.9767C17.8537 17.961 17.8876 17.9378 17.9158 17.9087C17.944 17.8795 17.9661 17.8449 17.9805 17.807C17.995 17.769 18.0016 17.7286 18 17.688V16.312C17.9995 16.2294 17.9664 16.1504 17.908 16.092C17.8496 16.0336 17.7706 16.0005 17.688 16H16.312C16.2293 16.0003 16.1501 16.0332 16.0917 16.0917C16.0332 16.1501 16.0003 16.2293 16 16.312V17.688C16 17.859 16.14 18 16.322 18Z"/>
</mask>
<path d="M22.46 7.62L26.12 12.5C27.3405 14.1232 28.0003 16.0991 28 18.13V21.44C28 22.3 27.3 23 26.44 23H1.56C0.7 23 0 22.3 0 21.44V18.13C0 16.1 0.66 14.12 1.88 12.5L5.53 7.63C5.83 7.23 6.29 7 6.78 7H7.69C7.86 7 8 6.86 8 6.69V4.31C8 4.14 8.14 4 8.31 4H9.69C9.86 4 10 4.14 10 4.31V6.69C10 6.86 10.14 7 10.31 7H17.69C17.86 7 18 6.86 18 6.69V4.31C18 4.14 18.14 4 18.31 4H19.69C19.86 4 20 4.14 20 4.31V6.69C20 6.86 20.14 7 20.31 7H21.22C21.71 7 22.17 7.23 22.46 7.62ZM11.698 12C11.868 12 12.009 11.86 11.999 11.688V10.312C11.9987 10.2295 11.9659 10.1504 11.9077 10.092C11.8494 10.0336 11.7705 10.0005 11.688 10H10.312C10.2293 10.0003 10.1501 10.0332 10.0917 10.0917C10.0332 10.1501 10.0003 10.2293 10 10.312V11.688C10 11.859 10.14 12 10.322 12H11.698ZM14.698 12C14.7386 12.0003 14.7788 11.9924 14.8163 11.9767C14.8537 11.961 14.8876 11.9378 14.9158 11.9087C14.944 11.8795 14.9661 11.8449 14.9805 11.807C14.995 11.769 15.0016 11.7286 15 11.688V10.312C14.9995 10.2294 14.9664 10.1504 14.908 10.092C14.8496 10.0336 14.7706 10.0005 14.688 10H13.312C13.2293 10.0003 13.1501 10.0332 13.0917 10.0917C13.0332 10.1501 13.0003 10.2293 13 10.312V11.688C13 11.859 13.14 12 13.322 12H14.698ZM16.322 12H17.698C17.7386 12.0003 17.7788 11.9924 17.8163 11.9767C17.8537 11.961 17.8876 11.9378 17.9158 11.9087C17.944 11.8795 17.9661 11.8449 17.9805 11.807C17.995 11.769 18.0016 11.7286 18 11.688V10.312C17.9995 10.2294 17.9664 10.1504 17.908 10.092C17.8496 10.0336 17.7706 10.0005 17.688 10H16.312C16.2293 10.0003 16.1501 10.0332 16.0917 10.0917C16.0332 10.1501 16.0003 10.2293 16 10.312V11.688C16 11.859 16.14 12 16.322 12ZM11.698 15C11.868 15 12.009 14.86 11.999 14.688V13.312C11.9987 13.2295 11.9659 13.1504 11.9077 13.092C11.8494 13.0336 11.7705 13.0005 11.688 13H10.312C10.2293 13.0003 10.1501 13.0332 10.0917 13.0917C10.0332 13.1501 10.0003 13.2293 10 13.312V14.688C10 14.859 10.14 15 10.322 15H11.698ZM13.322 15H14.698C14.7386 15.0003 14.7788 14.9924 14.8163 14.9767C14.8537 14.961 14.8876 14.9378 14.9158 14.9087C14.944 14.8795 14.9661 14.8449 14.9805 14.807C14.995 14.769 15.0016 14.7286 15 14.688V13.312C14.9995 13.2294 14.9664 13.1504 14.908 13.092C14.8496 13.0336 14.7706 13.0005 14.688 13H13.312C13.2293 13.0003 13.1501 13.0332 13.0917 13.0917C13.0332 13.1501 13.0003 13.2293 13 13.312V14.688C13 14.859 13.14 15 13.322 15ZM17.698 15C17.7386 15.0003 17.7788 14.9924 17.8163 14.9767C17.8537 14.961 17.8876 14.9378 17.9158 14.9087C17.944 14.8795 17.9661 14.8449 17.9805 14.807C17.995 14.769 18.0016 14.7286 18 14.688V13.312C17.9995 13.2294 17.9664 13.1504 17.908 13.092C17.8496 13.0336 17.7706 13.0005 17.688 13H16.312C16.2293 13.0003 16.1501 13.0332 16.0917 13.0917C16.0332 13.1501 16.0003 13.2293 16 13.312V14.688C16 14.859 16.14 15 16.322 15H17.698ZM10.322 18H11.698C11.868 18 12.009 17.86 11.999 17.688V16.312C11.9987 16.2295 11.9659 16.1504 11.9077 16.092C11.8494 16.0336 11.7705 16.0005 11.688 16H10.312C10.2293 16.0003 10.1501 16.0332 10.0917 16.0917C10.0332 16.1501 10.0003 16.2293 10 16.312V17.688C10 17.859 10.14 18 10.322 18ZM14.698 18C14.7386 18.0003 14.7788 17.9924 14.8163 17.9767C14.8537 17.961 14.8876 17.9378 14.9158 17.9087C14.944 17.8795 14.9661 17.8449 14.9805 17.807C14.995 17.769 15.0016 17.7286 15 17.688V16.312C14.9995 16.2294 14.9664 16.1504 14.908 16.092C14.8496 16.0336 14.7706 16.0005 14.688 16H13.312C13.2293 16.0003 13.1501 16.0332 13.0917 16.0917C13.0332 16.1501 13.0003 16.2293 13 16.312V17.688C13 17.859 13.14 18 13.322 18H14.698ZM16.322 18H17.698C17.7386 18.0003 17.7788 17.9924 17.8163 17.9767C17.8537 17.961 17.8876 17.9378 17.9158 17.9087C17.944 17.8795 17.9661 17.8449 17.9805 17.807C17.995 17.769 18.0016 17.7286 18 17.688V16.312C17.9995 16.2294 17.9664 16.1504 17.908 16.092C17.8496 16.0336 17.7706 16.0005 17.688 16H16.312C16.2293 16.0003 16.1501 16.0332 16.0917 16.0917C16.0332 16.1501 16.0003 16.2293 16 16.312V17.688C16 17.859 16.14 18 16.322 18Z" stroke="#DFA100" stroke-width="2" mask="url(#path-2-inside-1_148_208)"/>
</svg>
